<svg width="257" height="136" viewBox="0 0 257 136" fill="none" xmlns="http://www.w3.org/2000/svg">
<g clip-path="url(#clip0_2041_2042)">
<path d="M41.8098 48.5374C42.9135 46.3103 43.4657 43.8506 43.42 41.3654C43.42 38.6767 42.9291 36.4475 41.9474 34.678C41.0421 32.995 39.7694 31.5374 38.2238 30.4135C36.7967 29.3804 35.24 28.5395 33.5936 27.9123C32.0032 27.3183 30.6016 26.8535 29.3885 26.518L18.7586 23.4478C17.3263 23.0386 15.9208 22.5405 14.5504 21.9565C13.187 21.394 11.9576 20.5503 10.9425 19.4803C9.96083 18.4382 9.46998 17.0626 9.46998 15.3535C9.44979 13.6772 10.026 12.0483 11.0957 10.7576C12.2678 9.36304 13.7734 8.28755 15.4727 7.63115C17.4334 6.86584 19.528 6.50326 21.6318 6.56504C23.8921 6.563 26.128 7.03149 28.1973 7.94067C30.1356 8.79336 31.8429 10.0955 33.1777 11.7393C34.5356 13.4387 35.4249 15.4641 35.7571 17.6139L43.0823 16.3352C42.5019 13.1504 41.1517 10.1559 39.1492 7.61239C37.1841 5.16739 34.6511 3.23976 31.7709 1.99731C28.8112 0.690463 25.4575 0.0245325 21.71 -0.000479011C18.0145 -0.0254905 14.6932 0.58208 11.746 1.82223C8.96551 2.93601 6.5449 4.7931 4.74906 7.19033C3.02952 9.53307 2.16975 12.3573 2.16975 15.663C2.12635 17.5033 2.47041 19.3323 3.17959 21.0311C3.81505 22.4922 4.73793 23.8106 5.89333 24.9078C7.04299 25.9906 8.35009 26.893 9.77011 27.5841C11.2179 28.2941 12.7215 28.8838 14.2659 29.3474L28.4943 33.5743C29.492 33.8544 30.4646 34.2173 31.4019 34.6592C32.3043 35.0797 33.1456 35.6203 33.9031 36.2662C34.637 36.8998 35.2311 37.6792 35.6476 38.5547C36.0921 39.5608 36.3058 40.6537 36.2729 41.7531C36.3129 43.6529 35.6819 45.5061 34.4908 46.9867C33.2107 48.5251 31.5448 49.6958 29.6636 50.3789C27.4892 51.1927 25.182 51.5935 22.8605 51.5607C18.9837 51.5607 15.6176 50.5728 12.7621 48.5969C9.90664 46.6209 8.03077 43.8749 7.13453 40.3587L0 41.4811C0.547673 44.73 1.92988 47.781 4.01122 50.3352C6.11435 52.8626 8.80276 54.8384 11.8429 56.0909C15.009 57.4353 18.569 58.1075 22.5229 58.1075C25.2712 58.1259 28.0082 57.7532 30.6516 57.0007C33.0476 56.3321 35.3057 55.2428 37.3203 53.7836C39.209 52.4128 40.7473 50.6153 41.8098 48.5374Z" fill="white"/>
<path d="M55.3973 41.1344C55.3973 43.2792 55.4296 45.1977 55.4942 46.8902C55.5755 48.6364 56.0318 50.3447 56.8323 51.8987C57.7586 53.7309 59.2737 55.1986 61.1343 56.0663C63.164 56.9903 65.3607 57.4913 67.5904 57.5388C70.0544 57.6256 72.5202 57.4242 74.9375 56.9386V50.9983C72.0674 51.436 69.6184 51.5131 67.5904 51.2297C65.5624 50.9462 64.0825 49.977 63.1508 48.3221C62.64 47.3584 62.3677 46.2863 62.3567 45.1957C62.3192 43.9784 62.3004 42.5194 62.3004 40.8186V20.7813H74.9375V15.0818H62.3004V3.43896H55.3973V15.0693H46.8965V20.7813H55.3848L55.3973 41.1344Z" fill="white"/>
<path d="M115.644 22.0975C114.499 19.4 112.411 17.2124 109.769 15.9446C107.039 14.594 103.776 13.9187 99.9803 13.9187C95.2531 13.9187 91.4409 14.9608 88.5438 17.0451C85.6466 19.1294 83.6957 22.0151 82.6911 25.7022L89.241 27.6813C90.0163 25.0947 91.3544 23.2271 93.2553 22.0787C95.2678 20.8977 97.5693 20.3002 99.9021 20.3529C103.729 20.3529 106.424 21.245 107.987 23.0291C109.394 24.634 110.136 27.0237 110.213 30.1981C108.741 30.4013 107.209 30.6076 105.602 30.8233C103.069 31.161 100.568 31.5299 98.0981 31.9301C95.8459 32.2845 93.6138 32.7562 91.4107 33.3433C89.4614 33.8846 87.6141 34.7422 85.9426 35.8819C84.451 36.9187 83.2342 38.3029 82.3972 39.915C81.512 41.789 81.082 43.8455 81.1423 45.9172C81.2026 47.9888 81.7515 50.0169 82.7442 51.8361C83.8712 53.7756 85.5256 55.3553 87.5152 56.3913C89.6203 57.5419 92.2371 58.1171 95.3656 58.1171C99.4196 58.1171 102.859 57.2511 105.683 55.5191C107.768 54.2334 109.538 52.4949 110.86 50.4324V56.9541H116.985V31.0547C116.988 29.4687 116.91 27.8836 116.75 26.3056C116.617 24.8513 116.243 23.4293 115.644 22.0975ZM109.441 42.685C109.099 44.428 108.355 46.067 107.268 47.4716C106.098 48.9792 104.587 50.1879 102.86 50.9982C101.036 51.8924 98.8839 52.3384 96.4036 52.3364C94.4152 52.3364 92.8072 52.0133 91.5795 51.3672C90.4469 50.8122 89.503 49.9357 88.8658 48.8473C88.2958 47.8572 87.995 46.7351 87.9935 45.5926C87.9524 44.4201 88.2697 43.2629 88.9033 42.2755C89.526 41.371 90.3487 40.6222 91.3075 40.087C92.3213 39.5094 93.3934 39.041 94.5059 38.6895C96.2282 38.2136 97.9754 37.8326 99.7395 37.5483C101.678 37.2232 103.732 36.9189 105.902 36.6354C107.29 36.4541 108.7 36.2665 110.116 36.0726C110.116 36.7261 110.091 37.4858 110.069 38.3612C110.054 39.824 109.842 41.2782 109.441 42.685Z" fill="white"/>
<path d="M134.021 35.9539C134.014 34.318 134.153 32.6848 134.437 31.0736C134.707 29.5215 135.224 28.0227 135.969 26.634C136.724 25.243 137.795 24.0481 139.095 23.1449C140.498 22.0931 142.16 21.4416 143.903 21.2597C145.499 21.0715 147.117 21.1775 148.674 21.5723V15.0818C147.364 14.7921 146.018 14.6942 144.679 14.7911C143.252 14.8864 141.845 15.1691 140.492 15.6321C139.155 16.0803 137.908 16.7631 136.81 17.6486C135.785 18.3891 134.888 19.2921 134.155 20.3218C133.825 20.7802 133.521 21.2572 133.245 21.7505V15.0818H127.08V56.9511H134.021V35.9539Z" fill="white"/>
<path d="M182.231 56.9511V51.0108C179.361 51.4485 176.912 51.5257 174.884 51.2422C172.856 50.9587 171.376 49.9895 170.444 48.3346C169.932 47.3715 169.659 46.299 169.65 45.2082C169.608 43.9909 169.589 42.5319 169.591 40.8312V20.7813H182.231V15.0818H169.591V3.43896H162.691V15.0693H154.199V20.7813H162.691V41.1344C162.691 43.2792 162.723 45.1977 162.788 46.8902C162.873 48.6373 163.333 50.3456 164.138 51.8987C165.064 53.7309 166.58 55.1986 168.44 56.0663C170.47 56.9903 172.667 57.4913 174.896 57.5388C177.356 57.6288 179.817 57.4315 182.231 56.9511Z" fill="white"/>
<path d="M191.964 92.8203L180.255 125.892L168.509 92.8203H161.531L176.729 134.69H183.785L198.983 92.8203H191.964Z" fill="white"/>
<path d="M198.981 125.892L193.044 109.178L189.617 118.617L195.451 134.69H202.507L217.705 92.8203H210.686L198.981 125.892Z" fill="white"/>
<path d="M0 134.487H6.90005V110.022H27.9128V103.122H6.90005V85.5609H32.565V78.6609H0V134.487Z" fill="white"/>
<path d="M66.972 94.3622C64.0123 92.4238 60.4263 91.4546 56.214 91.4546C52.1558 91.4546 48.6209 92.3654 45.6091 94.1871C42.5685 96.0427 40.1265 98.7344 38.5746 101.941C36.8926 105.288 36.0526 109.248 36.0547 113.821C36.0547 118.198 36.9072 122.017 38.6121 125.276C40.2259 128.448 42.7064 131.096 45.7654 132.914C48.8293 134.734 52.4153 135.645 56.5235 135.647C60.4015 135.697 64.2135 134.64 67.5129 132.602C70.7888 130.566 73.3551 127.567 74.86 124.016L68.232 121.728C67.1863 123.974 65.5173 125.872 63.4235 127.196C61.383 128.461 58.9798 129.094 56.214 129.094C52.1037 129.094 48.9377 127.739 46.7158 125.029C44.7941 122.682 43.703 119.504 43.4425 115.494H75.5572C75.7657 110.531 75.1268 106.258 73.6407 102.675C72.1546 99.0925 69.9317 96.3214 66.972 94.3622ZM46.7158 101.766C48.9398 99.0268 52.1829 97.6574 56.4453 97.6574C60.4263 97.6574 63.4246 98.9299 65.4401 101.475C67.0346 103.488 68.0215 106.312 68.4008 109.947H43.5894C44.0063 106.55 45.0484 103.823 46.7158 101.766Z" fill="white"/>
<path d="M91.8375 77.498H84.9375V134.487H91.8375V77.498Z" fill="white"/>
<path d="M108.957 77.498H102.057V134.487H108.957V77.498Z" fill="white"/>
<path d="M149.231 94.2652C146.208 92.3893 142.603 91.4514 138.413 91.4514C134.33 91.4514 130.776 92.3748 127.752 94.2214C124.722 96.0764 122.288 98.7606 120.736 101.956C119.081 105.264 118.254 109.115 118.254 113.508C118.254 117.825 119.068 121.651 120.696 124.986C122.224 128.206 124.639 130.924 127.658 132.82C130.668 134.696 134.254 135.639 138.416 135.65C142.579 135.66 146.171 134.722 149.193 132.836C152.219 130.968 154.643 128.267 156.174 125.057C157.798 121.723 158.61 117.874 158.61 113.512C158.61 109.197 157.802 105.379 156.187 102.056C154.667 98.8433 152.252 96.1378 149.231 94.2652ZM148.111 124.745C145.992 127.64 142.761 129.087 138.419 129.087C134.207 129.087 131.015 127.666 128.843 124.823C126.671 121.98 125.586 118.206 125.589 113.502C125.589 110.455 126.053 107.767 126.983 105.439C127.817 103.237 129.288 101.334 131.21 99.9741C133.086 98.6547 135.489 97.995 138.419 97.995C142.709 97.995 145.927 99.3978 148.074 102.203C150.221 105.009 151.293 108.775 151.291 113.502C151.291 118.111 150.231 121.858 148.111 124.745Z" fill="white"/>
<path d="M255.655 117.138C254.753 115.654 253.234 114.362 251.1 113.261C248.966 112.161 246.048 111.146 242.346 110.216C239.808 109.613 237.303 108.876 234.843 108.009C233.123 107.361 231.946 106.675 231.313 105.952C230.686 105.235 230.351 104.309 230.375 103.357C230.375 101.547 231.221 100.112 232.914 99.0516C234.606 97.9906 236.81 97.5123 239.526 97.6165C242.392 97.6957 244.737 98.3815 246.56 99.6737C247.443 100.282 248.188 101.07 248.746 101.986C249.304 102.902 249.663 103.925 249.799 104.989L256.856 103.71C256.603 101.335 255.651 99.0896 254.12 97.257C252.489 95.3432 250.403 93.8694 248.055 92.9706C245.335 91.9255 242.439 91.4129 239.526 91.4606C236.322 91.4606 233.509 91.9639 231.085 92.9706C228.661 93.9773 226.784 95.404 225.454 97.2507C224.103 99.1275 223.396 101.392 223.44 103.704C223.44 105.696 223.893 107.39 224.797 108.784C225.702 110.179 227.214 111.406 229.334 112.467C231.449 113.526 234.356 114.546 238.053 115.528C241.467 116.435 244.02 117.21 245.71 117.854C247.4 118.498 248.519 119.19 249.065 119.93C249.641 120.778 249.926 121.791 249.878 122.816C249.907 123.763 249.7 124.703 249.273 125.549C248.847 126.396 248.215 127.122 247.436 127.662C245.808 128.843 243.56 129.434 240.692 129.434C237.666 129.434 235.132 128.768 233.092 127.436C231.129 126.216 229.724 124.274 229.177 122.028L222.121 123.181C222.844 127.11 224.803 130.167 227.996 132.351C231.189 134.536 235.278 135.627 240.264 135.625C245.485 135.625 249.582 134.469 252.554 132.157C255.526 129.846 257.012 126.673 257.012 122.637C257.012 120.457 256.56 118.624 255.655 117.138Z" fill="white"/>
</g>
<defs>
<clipPath id="clip0_2041_2042">
<rect width="257" height="136" fill="white"/>
</clipPath>
</defs>
</svg>
